<svg width="1920" height="414" viewBox="0 0 1920 414" fill="none" xmlns="http://www.w3.org/2000/svg">
<g clip-path="url(#clip0)">
<path d="M449.297 363.317C449.062 362.85 448.881 362.359 448.756 361.852C448.756 354.602 448.729 347.357 448.676 340.117C448.705 339.582 448.774 339.049 448.883 338.525C449.082 338.196 449.362 337.925 449.696 337.738C450.031 337.551 450.408 337.455 450.792 337.458C451.444 337.458 452.096 337.458 452.764 337.458H1911.09C1912.68 337.458 1914.27 337.458 1915.86 337.458C1916.55 337.519 1917.23 337.625 1917.9 337.776C1918.14 338.387 1918.32 339.022 1918.43 339.671C1918.43 342.028 1918.43 344.448 1918.43 346.773C1918.43 350.865 1918.43 354.957 1918.43 359.034C1918.6 360.382 1918.47 361.751 1918.06 363.046C1917.57 363.341 1917.03 363.556 1916.47 363.683C1915.29 363.779 1914.11 363.81 1912.92 363.779H456.851C455.149 363.779 453.432 363.779 451.73 363.779C450.909 363.681 450.096 363.527 449.297 363.317V363.317Z" fill="#2E1E83"/>
<path d="M1920 277.428C1918.68 278.034 1917.24 278.317 1915.79 278.256H1886.97C1885.81 278.392 1884.65 278.139 1883.66 277.539C1883.37 276.924 1883.18 276.269 1883.09 275.597C1883.09 273.877 1883.18 272.173 1883.26 270.453C1883.37 268.224 1883.5 265.995 1883.63 263.75L1884.2 252.317C1884.2 250.725 1884.33 249.132 1884.36 247.54C1884.45 238.321 1884.5 229.101 1884.63 219.882C1884.63 215.407 1884.93 210.933 1885.01 206.459C1885.19 196.905 1885.28 187.223 1885.46 177.606C1885.46 174.421 1885.74 171.237 1885.87 168.052C1885.95 167.402 1885.95 166.744 1885.87 166.094C1885.72 165.658 1885.51 165.245 1885.25 164.867C1884.9 164.79 1884.53 164.834 1884.21 164.993C1883.88 165.152 1883.62 165.417 1883.47 165.743C1882.96 166.651 1882.53 167.622 1882.02 168.53C1878.84 173.987 1875.26 179.202 1871.32 184.134C1866.92 189.867 1862.43 195.535 1857.86 201.14C1853.63 206.363 1849.27 211.458 1845.03 216.649C1838.67 224.499 1832.1 232.254 1825.94 240.263C1820 247.646 1814.68 255.507 1810.04 263.766C1808.43 266.48 1807.15 269.377 1806.24 272.396C1805.8 274.25 1805.1 276.03 1804.15 277.682C1803.3 277.906 1802.44 278.055 1801.56 278.128C1794.57 278.128 1787.6 278.128 1780.63 278.128C1779.69 278.059 1778.75 277.921 1777.83 277.714C1777.49 277.008 1777.25 276.258 1777.12 275.485C1777.12 273.638 1777.21 271.807 1777.29 269.96C1777.48 265.087 1777.75 260.215 1777.89 255.358C1778.21 243.639 1778.63 231.919 1778.74 220.2C1778.87 204.659 1778.74 189.102 1778.74 173.561C1778.74 169.087 1778.74 164.597 1778.56 160.122C1778.31 149.199 1778.05 138.26 1777.74 127.337C1777.62 122.99 1777.32 118.659 1777.12 114.312C1777.03 113.252 1777.03 112.187 1777.12 111.127C1777.25 110.565 1777.47 110.028 1777.77 109.535C1779.16 108.887 1780.7 108.655 1782.22 108.866H1807.1C1808.27 108.866 1809.46 108.866 1810.64 108.866C1811.18 108.934 1811.71 109.051 1812.23 109.216C1812.61 109.551 1812.9 109.973 1813.07 110.445C1813.25 110.917 1813.3 111.424 1813.23 111.923C1813.23 114.694 1813.12 117.464 1813.04 120.219C1812.83 127.331 1812.61 134.444 1812.38 141.556C1812.2 146.429 1811.91 151.285 1811.82 156.158C1811.68 163.403 1811.69 170.648 1811.55 177.893C1811.32 188.964 1811.04 200.026 1810.72 211.076C1810.72 212.907 1810.4 214.754 1810.28 216.586C1810.01 218.049 1810.06 219.553 1810.42 220.996C1810.67 221.155 1811.02 221.554 1811.29 221.506C1811.8 221.427 1812.26 221.166 1812.58 220.773C1813.11 220.041 1813.43 219.181 1813.89 218.353C1816.16 214.5 1818.78 210.885 1821.36 207.207C1826.13 200.328 1831.51 193.784 1836.82 187.255C1841.8 181.125 1847.06 175.233 1852.1 169.167C1857.42 162.797 1862.63 156.428 1867.83 149.916C1870.55 146.54 1873.23 143.132 1875.79 139.613C1879.94 134.024 1883.66 128.126 1886.92 121.971C1888.56 118.959 1889.8 115.748 1890.61 112.417C1890.7 111.234 1891.23 110.129 1892.1 109.328C1893.05 108.838 1894.13 108.644 1895.19 108.77H1915.72C1917.17 108.692 1918.62 108.959 1919.95 109.551V116.668C1919.45 117.599 1919.21 118.652 1919.27 119.71C1919.05 126.079 1918.7 132.591 1918.6 139.04C1918.09 173.546 1917.98 208.051 1918.46 242.54C1918.57 250.836 1918.95 259.116 1919.22 267.412C1919.1 268.863 1919.35 270.322 1919.95 271.648L1920 277.428Z" fill="#B51529"/>
<path d="M963.626 282.061H956.915C953.756 282.137 950.601 281.794 947.531 281.042C946.259 280.708 944.923 280.692 943.635 280.421C941.965 280.055 940.327 279.577 938.689 279.116C938.18 278.972 937.734 278.67 937.225 278.542C933.827 277.563 930.547 276.212 927.444 274.514C915.134 268.622 905.623 259.498 897.735 248.623C894.607 244.231 891.987 239.499 889.926 234.515C888.797 231.84 888.081 229.037 886.825 226.426C886.702 226.191 886.616 225.939 886.57 225.678C885.743 220.487 883.644 215.567 883.628 210.2C883.628 207.844 883.135 205.424 883.008 203.115C882.628 197.327 882.782 191.517 883.469 185.759C883.628 184.453 883.644 183.131 883.787 181.826C883.842 180.113 884.044 178.408 884.391 176.73C885.568 172.558 885.982 168.195 887.667 164.151C888.479 162.224 889.003 160.17 889.767 158.212C892.841 150.368 897.083 143.035 902.347 136.461C908.973 127.903 917.174 120.693 926.506 115.219C929.464 113.516 932.549 112.035 935.651 110.665C938.752 109.296 941.663 108.77 944.541 107.481C944.654 107.415 944.778 107.372 944.907 107.353C948.899 106.557 952.859 105.522 956.899 105.029C963.84 104.289 970.84 104.289 977.781 105.029C978.958 105.14 980.135 105.379 981.296 105.586C982.06 105.729 982.887 106.048 983.602 106.127C987.635 106.689 991.593 107.699 995.403 109.137C997.765 109.938 1000.08 110.885 1002.32 111.971C1007.87 114.682 1013.1 118.009 1017.91 121.891C1021.41 124.685 1024.64 127.804 1027.56 131.206C1033.27 137.628 1037.88 144.944 1041.22 152.861C1042.69 156.383 1043.92 159.994 1044.93 163.673C1046.73 170.988 1047.89 178.448 1048.38 185.966C1048.75 191.492 1048.49 197.043 1047.6 202.51C1047.2 205.392 1046.85 208.258 1046.47 211.14C1046.39 212.188 1046.21 213.227 1045.95 214.245C1044.75 217.875 1044.12 221.633 1042.77 225.232C1041.39 229.071 1039.8 232.83 1038 236.489C1033.12 245.846 1026.66 254.287 1018.91 261.441C1013.98 266.004 1008.55 269.98 1002.7 273.288C1000.67 274.45 998.393 275.198 996.342 276.297C993.527 277.778 990.393 278.351 987.515 279.609C987.276 279.722 987.025 279.808 986.767 279.864C982.234 280.628 977.797 281.982 973.169 282.125C969.988 282.236 966.807 282.125 963.626 282.125V282.061ZM1011.93 194.93C1011.58 186.634 1011.93 179.485 1009.35 172.638C1008.5 168.658 1007.11 164.815 1005.2 161.221C1002.85 156.216 999.718 151.616 995.928 147.591C992.225 143.48 987.764 140.123 982.791 137.703C976.848 134.812 970.313 133.351 963.706 133.435C955.356 133.576 947.289 136.488 940.772 141.715C935.699 145.718 931.421 150.639 928.16 156.221C925.168 161.175 922.912 166.539 921.464 172.144C919.651 178.759 918.821 185.605 918.999 192.462C918.999 194.182 918.999 195.886 918.999 197.605C919.235 207.241 921.495 216.719 925.631 225.423C928.919 232.486 933.706 238.746 939.659 243.766C947.316 250.363 957.12 253.926 967.221 253.782C975.179 253.771 982.915 251.154 989.248 246.33C993.744 242.886 997.663 238.747 1000.86 234.069C1004.11 229.134 1006.74 223.819 1008.7 218.242C1008.9 217.612 1009.05 216.968 1009.14 216.315C1009.26 215.536 1009.44 214.769 1009.69 214.022C1010.58 211.68 1011.09 209.205 1011.18 206.697C1011.51 202.414 1011.74 198.067 1011.93 194.93V194.93Z" fill="#B51529"/>
<path d="M1218.03 277.523C1217.53 277.801 1217 278.004 1216.44 278.128C1215.38 278.236 1214.32 278.279 1213.26 278.256H1187.24C1185.73 278.473 1184.18 278.258 1182.79 277.635C1182.53 277.13 1182.34 276.595 1182.22 276.042C1182.15 275.125 1182.15 274.205 1182.22 273.288C1182.69 260.247 1182.88 247.206 1183.25 234.165C1183.63 221.426 1183.36 208.608 1183.93 195.838C1184.33 186.746 1184.51 177.67 1184.71 168.578C1184.95 167.378 1184.8 166.135 1184.28 165.027L1183.36 164.868C1182.15 165.441 1182.14 166.651 1181.63 167.543C1178.62 172.635 1175.3 177.538 1171.69 182.224C1166.45 189.325 1160.97 196.22 1155.34 203.019C1150.14 209.293 1144.76 215.439 1139.61 221.777C1132.64 230.343 1125.55 238.814 1119.15 247.843C1115.66 252.615 1112.41 257.569 1109.44 262.683C1106.98 266.883 1105.1 271.399 1103.85 276.106C1103.75 276.483 1103.6 276.847 1103.41 277.189C1103.25 277.407 1103.07 277.605 1102.87 277.778C1101.79 278.285 1100.59 278.467 1099.42 278.304C1082.69 278.558 1079.62 278.495 1076.39 277.746C1076.03 277.127 1075.77 276.455 1075.62 275.756C1075.58 274.437 1075.64 273.118 1075.78 271.807C1075.99 268.622 1076.26 265.438 1076.45 262.349C1077.2 249.053 1077.14 235.741 1077.26 222.429C1077.52 195.679 1077.26 168.928 1076.93 142.193C1076.82 134.805 1076.45 127.432 1076.13 120.06C1076.02 117.433 1075.74 114.821 1075.54 112.194C1075.49 111.686 1075.56 111.172 1075.76 110.7C1075.96 110.229 1076.27 109.817 1076.67 109.503C1077.34 109.321 1078.01 109.193 1078.69 109.121C1080.14 109.121 1081.59 109.121 1083.04 109.121H1106.73C1108.16 108.981 1109.6 109.067 1111 109.376C1111.42 109.587 1111.77 109.923 1112 110.339C1112.22 110.754 1112.32 111.229 1112.27 111.7C1112.01 116.971 1111.74 122.226 1111.46 127.496C1111.46 128.149 1111.33 128.802 1111.31 129.471C1111.04 140.521 1110.36 151.572 1110.36 162.654C1110.36 174.644 1110.36 186.634 1110.09 198.624C1109.99 203.879 1109.47 209.134 1109.12 214.388C1109.02 215.837 1108.86 217.286 1108.77 218.719C1108.77 219.516 1108.77 220.312 1108.77 220.949C1109.06 221.267 1109.18 221.522 1109.39 221.649C1109.63 221.776 1109.9 221.818 1110.16 221.768C1110.42 221.719 1110.66 221.582 1110.84 221.379C1111.4 220.837 1111.88 220.214 1112.27 219.531C1114.18 215.927 1116.4 212.495 1118.9 209.277C1128.09 196.746 1137.99 184.74 1147.97 172.909C1155.48 164.087 1163.05 155.393 1170.08 146.11C1174.23 140.803 1178.11 135.287 1181.69 129.582C1184.24 125.597 1186.44 121.405 1188.29 117.051C1188.81 115.56 1189.19 114.025 1189.44 112.465C1189.49 111.815 1189.7 111.188 1190.04 110.634C1190.38 110.08 1190.85 109.616 1191.41 109.28C1192.21 109.122 1193.01 109.021 1193.83 108.978C1200.81 108.978 1207.79 108.978 1214.76 108.978C1217.94 108.978 1218.75 109.821 1218.57 112.974C1218.35 117.305 1218.19 121.652 1218.02 125.999C1218.02 127.719 1217.89 129.423 1217.86 131.142C1217.73 140.489 1217.86 149.852 1217.43 159.199C1216.95 170.345 1217.06 181.332 1216.97 192.399C1216.87 202.542 1216.97 212.685 1217.09 222.828C1217.27 235.216 1217.57 247.604 1217.87 259.976C1218 264.753 1218.32 269.53 1218.54 274.195C1218.76 275.33 1218.58 276.506 1218.03 277.523V277.523Z" fill="#B51529"/>
<path d="M1572.3 109.153C1573.17 109.153 1574.35 109.009 1575.48 109.009H1594.04C1595.1 109.011 1596.17 109.07 1597.22 109.185C1597.65 109.249 1598.05 109.433 1598.37 109.715C1598.7 109.996 1598.94 110.365 1599.07 110.777C1599.22 112.559 1599.18 114.352 1598.97 116.127C1598.8 118.754 1598.59 121.382 1598.43 124.089C1597.43 141.715 1597.76 159.374 1597.51 177.033C1597.4 185.201 1597.17 193.354 1597.21 201.522C1597.21 211.793 1597.48 222.079 1597.62 232.35C1597.68 237.222 1597.73 242.094 1597.76 246.967C1597.76 255.534 1598.16 264.084 1599 272.619C1599.25 273.972 1599.25 275.358 1599 276.711C1598.86 277.121 1598.6 277.48 1598.25 277.746C1597.91 278.011 1597.5 278.172 1597.06 278.208C1596.01 278.313 1594.94 278.36 1593.88 278.351H1567.08C1565.69 278.534 1564.28 278.324 1563 277.746C1562.69 277.11 1562.5 276.426 1562.42 275.724C1562.71 267.954 1563.09 260.199 1563.43 252.429C1563.52 250.327 1563.62 248.225 1563.65 246.059C1563.78 233.926 1563.78 221.808 1564.01 209.691C1564.22 198.545 1564.65 187.399 1564.98 176.125C1565.08 173.227 1565.17 170.329 1565.24 167.431C1565.22 166.743 1565.15 166.057 1565.05 165.377L1563.74 164.82C1563.39 165.09 1563.11 165.202 1563.01 165.409C1559.75 171.601 1555.91 177.467 1551.53 182.924C1546.92 188.832 1542.37 194.803 1537.72 200.694C1535.61 203.385 1533.33 205.933 1531.14 208.56C1525 215.933 1518.72 223.21 1512.72 230.694C1506.73 238.177 1500.92 245.518 1495.75 253.479C1494.03 256.123 1492.25 258.75 1490.68 261.441C1489.1 264.132 1487.61 266.982 1486.32 269.848C1485.61 271.69 1485.03 273.579 1484.59 275.501C1484.27 276.552 1484.29 276.568 1482.68 278.128C1481.77 278.128 1480.74 278.304 1479.69 278.304H1460.73C1459.95 278.306 1459.16 278.269 1458.38 278.192C1457.87 278.148 1457.39 277.953 1457 277.632C1456.61 277.311 1456.32 276.879 1456.18 276.393C1456.18 275.581 1456.28 274.53 1456.39 273.495C1457.01 267.46 1457.07 261.393 1457.18 255.342C1457.42 243.48 1457.85 231.633 1457.95 219.786C1458.08 204.5 1457.95 189.214 1457.95 173.928C1457.95 168.259 1457.85 162.606 1457.73 156.938C1457.49 145.346 1457.23 133.754 1456.9 122.178C1456.8 118.882 1456.45 115.602 1456.23 112.321C1456.23 111.796 1456.23 111.27 1456.23 110.729L1457.3 109.439C1457.91 109.282 1458.54 109.181 1459.17 109.137C1469.31 109.137 1479.45 109.137 1489.58 109.137C1490.12 109.163 1490.65 109.232 1491.17 109.344C1491.56 109.549 1491.89 109.858 1492.12 110.237C1492.35 110.616 1492.47 111.05 1492.48 111.493C1492.48 112.544 1492.48 113.595 1492.48 114.678C1492.25 121.796 1492.05 128.897 1491.78 136.015C1491.49 143.515 1491.08 151.014 1491.06 158.514C1491.06 163.928 1491.06 169.326 1490.95 174.724C1490.78 183.811 1490.55 192.897 1490.27 201.984C1490.09 207.382 1489.74 212.764 1489.5 218.162C1489.23 219.351 1489.41 220.598 1490 221.665L1491.19 221.872C1491.54 221.508 1491.86 221.107 1492.13 220.678C1494.81 215.687 1497.93 210.944 1501.45 206.506C1506.57 199.819 1511.7 193.147 1517 186.603C1522.3 180.058 1527.51 174.135 1532.71 167.845C1538.33 161.062 1544.09 154.39 1549.46 147.4C1555.54 139.789 1560.99 131.694 1565.76 123.197C1567.62 120.102 1568.96 116.732 1569.76 113.213C1569.89 112.572 1570.06 111.939 1570.26 111.318C1570.43 110.833 1570.7 110.389 1571.05 110.015C1571.4 109.642 1571.83 109.348 1572.3 109.153Z" fill="#B51529"/>
<path d="M778.357 215.248C777.705 216.256 777.466 217.476 777.689 218.656C777.689 224.308 777.689 229.977 777.864 235.646C778.087 248.145 778.373 260.661 778.596 273.16C778.853 274.658 778.682 276.198 778.103 277.603C777.549 277.846 776.974 278.038 776.385 278.176C775.603 278.259 774.817 278.285 774.031 278.256H747.185C746.266 278.285 745.346 278.242 744.433 278.128C743.803 277.934 743.195 277.673 742.62 277.348C742.439 276.568 742.322 275.775 742.27 274.976C742.413 270.772 742.62 266.552 742.795 262.349C742.795 260.501 742.938 258.654 742.954 256.823C743.081 244.562 742.954 232.318 743.368 220.073C743.861 204.261 743.654 188.465 743.606 172.654C743.606 157.384 743.193 142.113 742.906 126.843C742.906 122.894 742.525 118.882 742.35 114.996C742.172 113.687 742.258 112.355 742.604 111.079C742.962 110.525 743.467 110.083 744.063 109.801C744.659 109.52 745.321 109.411 745.976 109.487L752.338 109.662C762.469 109.933 772.584 109.184 782.715 109.184C792.067 109.184 801.402 109.089 810.738 109.073C814.823 108.896 818.91 109.347 822.857 110.411C823.489 110.599 824.14 110.717 824.798 110.761C828.585 111.219 832.289 112.205 835.804 113.691C842.412 115.958 848.52 119.483 853.791 124.073C857.319 127.253 860.138 131.144 862.062 135.489C864.511 141.193 865.772 147.337 865.767 153.546C865.826 159.214 865.185 164.867 863.859 170.377C862.443 176.422 859.855 182.13 856.241 187.176C853.404 191.14 849.952 194.624 846.014 197.494C841.188 200.909 836.037 203.837 830.635 206.236C827.645 207.637 824.4 208.274 821.458 209.771C816.909 210.487 812.695 212.637 808.003 212.7C806.92 212.72 805.847 212.908 804.822 213.258C802.671 213.882 800.445 214.209 798.206 214.229C792.687 214.404 787.184 214.898 781.649 214.547C781.081 214.442 780.498 214.449 779.933 214.569C779.369 214.69 778.833 214.92 778.357 215.248V215.248ZM776.321 136.365C776.321 137.4 776.178 138.435 776.21 139.55C776.401 146.54 776.687 153.514 776.846 160.489C777.005 167.877 777.037 175.249 777.132 182.638C777.132 184.087 777.132 185.536 777.26 186.985C777.267 187.485 777.384 187.977 777.604 188.426C777.824 188.874 778.141 189.269 778.532 189.58C780.042 190.199 781.682 190.429 783.303 190.249C785.943 190.249 788.568 190.026 791.256 190.026C796.791 189.876 802.294 189.129 807.669 187.797C810.356 187.159 812.98 186.28 815.51 185.169C817.826 184.217 820.008 182.964 821.999 181.443C828.01 176.666 831.541 170.695 831.541 162.861C831.541 160.616 831.541 158.387 831.398 156.142C831.211 153.516 830.514 150.952 829.346 148.594C827.008 143.675 822.951 139.784 817.943 137.655C812.281 135.127 806.183 133.727 799.987 133.531C796.806 133.403 793.625 133.531 790.524 133.531C787.229 133.607 783.946 133.964 780.711 134.598C779.097 134.705 777.56 135.324 776.321 136.365V136.365Z" fill="#B51529"/>
<path d="M568.165 136.381C567.811 136.794 567.341 137.089 566.815 137.229C566.29 137.368 565.735 137.344 565.223 137.161C561.629 135.728 557.78 135.569 554.09 134.757C550.488 133.979 546.817 133.558 543.132 133.499C538.136 133.228 533.125 133.484 528.182 134.263C522.459 135.182 516.935 137.072 511.848 139.852C507.247 142.436 503.238 145.957 500.079 150.187C497.533 153.541 495.337 157.148 493.527 160.951C492.142 163.489 491.109 166.205 490.457 169.024C490.45 169.156 490.418 169.286 490.362 169.406C488.278 174.071 488.183 179.167 487.435 184.071C487.077 187.476 486.949 190.902 487.053 194.325C487.024 196.704 487.243 199.078 487.706 201.411C488.119 203.608 488.326 205.838 488.708 208.051C488.941 209.204 489.243 210.342 489.614 211.459C489.837 212.207 490.171 212.939 490.393 213.688C493.464 223.927 499.207 233.161 507.029 240.439C511.373 244.487 516.469 247.641 522.027 249.722C528.933 252.327 536.245 253.691 543.625 253.75C549.022 253.785 554.41 253.316 559.72 252.349C565.162 251.37 570.538 250.051 575.815 248.4C576.386 248.129 577.019 248.016 577.648 248.072C578.277 248.128 578.88 248.351 579.394 248.719C579.558 249.273 579.654 249.845 579.68 250.422C579.68 252.652 579.489 254.897 579.346 257.126C578.949 262.779 578.535 268.431 578.137 274.084C578.253 275.346 577.896 276.606 577.136 277.619C573.971 279.075 570.583 279.984 567.116 280.31C564.358 280.528 561.617 280.922 558.909 281.488C557.753 281.73 556.575 281.852 555.394 281.854C546.043 281.854 536.691 282.03 527.355 281.854C522.505 281.502 517.688 280.783 512.946 279.705C510.624 279.291 508.461 278.113 506.075 277.921C503.499 276.6 500.604 276.122 498.027 274.737C496.071 273.686 493.972 272.969 491.984 271.903C481.992 266.505 473.352 258.91 466.712 249.69C463.391 245.264 460.539 240.504 458.203 235.486C457.026 232.864 455.929 230.211 454.911 227.525C453.32 223.305 452.827 218.815 451.396 214.579C451.171 213.819 451.048 213.032 451.03 212.239C450.839 207.892 450.124 203.593 449.583 199.277C449.368 197.58 449.368 195.863 449.583 194.166C450.155 189.867 450.823 185.568 450.998 181.205C450.984 180.669 451.038 180.134 451.157 179.612C452.303 175.568 452.748 171.348 454.338 167.383C455.213 165.043 455.833 162.607 456.788 160.314C459.499 153.755 462.929 147.517 467.014 141.715C472.353 134.02 478.85 127.198 486.274 121.493C490.704 118.196 495.464 115.368 500.477 113.054C503.212 111.764 506.139 110.936 508.842 109.599C509.329 109.395 509.836 109.24 510.353 109.137C514.695 108.118 518.894 106.462 523.411 106.271C528.182 104.678 533.287 104.774 538.265 104.567C544.192 104.386 550.124 104.557 556.03 105.076C556.95 105.122 557.865 105.239 558.766 105.427C561.567 106.148 564.424 106.632 567.307 106.876C568.095 106.957 568.873 107.117 569.629 107.353C570.486 107.513 571.248 108.002 571.75 108.716C572.253 109.43 572.456 110.313 572.317 111.175C572.062 113.659 571.776 116.143 571.378 118.611C570.615 123.292 569.597 127.942 569.199 132.671C569.157 133.973 568.802 135.245 568.165 136.381V136.381Z" fill="#B51529"/>
<path d="M1422.77 136.349C1422.36 136.794 1421.82 137.102 1421.23 137.233C1420.64 137.364 1420.02 137.311 1419.46 137.082C1414.14 135.576 1408.7 134.548 1403.21 134.009C1394.98 132.856 1386.61 133.25 1378.52 135.171C1374.43 136.139 1370.48 137.644 1366.78 139.645C1361.41 142.511 1356.84 146.663 1353.46 151.731C1351.63 154.294 1349.98 156.987 1348.54 159.788C1347.06 162.574 1345.88 165.51 1345.03 168.546C1344.99 168.804 1344.93 169.059 1344.85 169.31C1342.4 175.934 1341.94 182.924 1341.29 189.851C1341.14 193.539 1341.38 197.232 1342.01 200.87C1342.12 201.793 1342.39 202.685 1342.45 203.608C1343 207.913 1344.02 212.143 1345.5 216.219C1346.17 218.218 1347 220.157 1347.99 222.015C1350.24 226.618 1353.01 230.955 1356.22 234.945C1361.49 241.579 1368.44 246.672 1376.34 249.69C1383.62 252.416 1391.33 253.808 1399.1 253.798C1404.1 253.749 1409.08 253.291 1414 252.428C1419.6 251.45 1425.13 250.104 1430.54 248.4C1431.59 248.066 1431.59 248.066 1433.73 248.4C1433.97 248.958 1434.14 249.547 1434.22 250.152C1434.23 251.747 1434.16 253.342 1434 254.928C1433.28 261.298 1432.87 267.794 1432.64 274.243C1432.72 274.87 1432.67 275.507 1432.48 276.112C1432.29 276.716 1431.98 277.273 1431.56 277.746C1428.23 279.122 1424.73 280.028 1421.15 280.437C1418.79 280.66 1416.37 281.09 1414.12 281.393C1412.42 281.662 1410.72 281.838 1409.01 281.918C1400.07 281.918 1391.12 281.918 1382.18 281.918H1381.78C1376.09 281.026 1370.27 280.74 1364.73 278.893C1363.86 278.614 1362.96 278.385 1362.06 278.208C1361.41 278.15 1360.77 278.005 1360.15 277.778C1357.37 276.281 1354.25 275.644 1351.37 274.323C1348.02 272.808 1344.78 271.074 1341.66 269.132C1333.57 263.918 1326.55 257.206 1320.98 249.355C1317.84 245.13 1315.12 240.608 1312.85 235.853C1311.41 233.193 1310.28 230.377 1309.48 227.461C1307.56 223.496 1307.49 219.006 1305.93 214.946C1305.77 214.43 1305.67 213.894 1305.65 213.353C1304.79 204.038 1304.06 194.723 1305.25 185.361C1305.41 184.198 1305.44 183.004 1305.49 181.826C1305.53 179.978 1305.86 178.148 1306.44 176.396C1306.68 175.78 1306.85 175.139 1306.95 174.485C1307.65 170.738 1308.67 167.061 1310.02 163.498C1310.71 161.374 1311.54 159.294 1312.49 157.272C1318.62 143.939 1327.65 132.153 1338.94 122.783C1342.4 119.97 1346.13 117.505 1350.07 115.426C1353.56 113.599 1357.14 111.961 1360.8 110.522C1364.22 109.105 1367.91 108.675 1371.29 107.178C1371.53 107.075 1371.79 107.011 1372.05 106.987C1376.2 106.302 1380.32 105.395 1384.5 104.997C1390.79 104.386 1397.12 104.237 1403.43 104.551C1405.65 104.646 1407.88 104.806 1410.12 104.981C1411.19 105.005 1412.26 105.122 1413.3 105.331C1416.24 106.099 1419.24 106.631 1422.26 106.923C1423.17 107.048 1424.06 107.283 1424.91 107.624C1425.56 107.839 1426.11 108.279 1426.45 108.864C1426.8 109.448 1426.93 110.139 1426.81 110.809C1426.47 113.993 1426.19 117.178 1425.66 120.219C1424.83 124.215 1424.22 128.256 1423.85 132.321C1423.82 133.731 1423.45 135.114 1422.77 136.349Z" fill="#B51529"/>
<path d="M636.984 136.079C636.319 135.889 635.637 135.767 634.948 135.712C626.996 135.824 619.171 135.712 611.282 136.397C605.27 136.938 599.211 137.161 593.167 137.496C592.252 137.575 591.331 137.575 590.416 137.496C589.635 137.324 588.869 137.09 588.126 136.795C587.917 136.019 587.784 135.224 587.728 134.423C587.967 127.576 588.253 120.729 588.523 113.898C588.523 113.229 588.523 112.576 588.619 111.923C588.644 111.367 588.815 110.828 589.113 110.359C589.412 109.889 589.828 109.506 590.32 109.248C590.787 109.146 591.26 109.076 591.736 109.041C634.232 109.041 676.729 109.041 719.225 109.041C719.685 109.064 720.142 109.122 720.593 109.216C721.048 109.409 721.432 109.74 721.689 110.163C721.946 110.586 722.063 111.079 722.024 111.573C721.833 119.073 721.658 126.588 721.451 134.088C721.38 134.928 721.257 135.763 721.086 136.588C720.441 136.969 719.745 137.254 719.018 137.432C717.835 137.495 716.649 137.463 715.471 137.337C711.798 137.082 708.124 136.891 704.466 136.524C696.195 135.681 687.909 135.856 679.623 135.712C678.176 135.712 676.713 135.712 675.281 135.712C674.532 135.851 673.797 136.058 673.086 136.333C672.893 136.85 672.744 137.383 672.641 137.926C672.562 138.833 672.641 139.757 672.641 140.68C672.641 161.492 672.514 182.303 672.641 203.131C672.641 224.866 672.975 246.601 673.166 268.415C673.166 270.374 673.389 272.348 673.452 274.323C673.555 274.915 673.53 275.523 673.379 276.105C673.229 276.688 672.955 277.231 672.578 277.698C671.246 278.253 669.789 278.435 668.363 278.224H644.554C642.836 278.224 641.135 278.224 639.417 278.144C638.969 278.138 638.533 278.003 638.161 277.754C637.788 277.506 637.495 277.154 637.318 276.743C637.047 275.703 636.998 274.618 637.175 273.559C637.461 260.533 637.747 247.498 638.033 234.451C638.113 231.267 638.033 228.082 638.145 224.977C638.781 205.217 638.51 185.456 638.574 165.696C637.986 156.89 638.177 148.069 637.986 139.247C638.067 138.678 638.019 138.097 637.845 137.549C637.672 137 637.377 136.498 636.984 136.079V136.079Z" fill="#B51529"/>
<path d="M1669.35 136.015C1668.78 135.861 1668.2 135.76 1667.61 135.712C1659.66 135.824 1651.82 135.712 1643.93 136.381C1637.57 136.923 1631.32 137.161 1625.02 137.512C1624.1 137.576 1623.18 137.544 1622.27 137.416C1621.64 137.226 1621.03 136.959 1620.46 136.62C1620.35 135.956 1620.28 135.286 1620.25 134.614C1620.41 129.996 1620.57 125.394 1620.78 120.777C1620.92 117.879 1621.13 114.996 1621.3 112.098C1621.3 111.59 1621.41 111.088 1621.62 110.626C1621.83 110.164 1622.14 109.754 1622.53 109.423C1623.19 109.249 1623.86 109.122 1624.55 109.041C1625.6 109.041 1626.66 109.041 1627.73 109.041H1748.6C1750.37 108.811 1752.18 109.008 1753.86 109.614C1754.2 110.251 1754.42 110.941 1754.52 111.653C1754.39 119.152 1754.18 126.668 1753.96 134.168C1753.91 134.884 1753.81 135.597 1753.67 136.302C1753.4 136.718 1753.02 137.053 1752.57 137.269C1752.12 137.485 1751.62 137.574 1751.13 137.528C1749.54 137.528 1747.95 137.352 1746.36 137.225C1745.45 137.225 1744.53 136.986 1743.62 136.923C1732.06 136.11 1720.48 135.649 1708.9 135.728C1708.28 135.622 1707.65 135.659 1707.05 135.835C1706.45 136.012 1705.9 136.324 1705.44 136.747C1705.29 137.178 1705.17 137.62 1705.1 138.069C1705.1 138.977 1705.1 139.9 1705.1 140.824C1705.1 161.253 1704.97 181.682 1705.1 202.112C1705.1 222.143 1705.39 242.174 1705.58 262.205C1705.58 265.772 1705.82 269.323 1705.93 272.874C1706.01 273.934 1706.01 274.998 1705.93 276.058C1705.76 276.711 1705.51 277.341 1705.2 277.937C1704.28 278.113 1703.36 278.23 1702.43 278.288C1692.89 278.288 1683.22 278.288 1673.59 278.288C1672.94 278.32 1672.28 278.256 1671.64 278.097C1671.04 277.836 1670.47 277.51 1669.94 277.125C1669.94 275.963 1669.79 274.928 1669.81 273.941C1670.03 264.721 1670.32 255.502 1670.49 246.282C1670.65 238.639 1670.49 230.98 1670.84 223.353C1671.46 206.347 1671.1 189.357 1671.18 172.399C1671.18 167.001 1670.94 161.603 1670.86 156.205C1670.78 150.807 1670.72 145.059 1670.64 139.598C1670.73 138.94 1670.67 138.269 1670.44 137.644C1670.22 137.019 1669.84 136.459 1669.35 136.015Z" fill="#B51529"/>
<path d="M1106.67 61.877C1108.65 61.22 1110.71 60.8657 1112.79 60.8261C1116.07 60.5736 1119.34 60.1537 1122.57 59.5682C1125.42 59.1223 1128.32 58.8994 1131.19 58.6287C1131.7 58.5409 1132.22 58.5873 1132.7 58.7633C1133.19 58.9393 1133.61 59.2387 1133.95 59.6319C1133.95 60.3962 1134.18 61.4312 1134.18 62.4662C1134.16 64.8466 1134.58 67.2109 1135.41 69.4405C1135.73 70.3003 1135.97 71.192 1136.25 72.0678C1136.86 74.083 1137.91 75.9383 1139.32 77.5015C1140.73 79.0648 1142.47 80.2975 1144.41 81.1121C1150.77 83.8031 1156.75 83.0069 1162.72 80.2523C1164.29 79.3023 1165.65 78.0266 1166.69 76.5103C1166.92 75.7428 1167.18 74.988 1167.49 74.2493C1169.06 70.606 1169.81 66.6567 1169.67 62.6891C1169.46 61.5418 1169.66 60.3576 1170.24 59.3453C1170.54 59.0638 1170.9 58.8544 1171.29 58.733C1171.68 58.6115 1172.09 58.5813 1172.5 58.6446C1174.99 58.8516 1177.49 58.9949 1179.96 59.4089C1183.58 60.0941 1187.23 60.5884 1190.9 60.8898C1192.97 60.8271 1195.02 61.2813 1196.86 62.2114C1197.6 63.2195 1197.92 64.4772 1197.74 65.7145C1197.56 68.7365 1197.09 71.7338 1196.32 74.6633C1195.65 77.1941 1194.81 79.6781 1193.81 82.0993C1191.15 88.018 1186.7 92.9485 1181.09 96.1913C1178.57 97.6721 1175.73 98.3568 1173.23 99.8058C1172.99 99.9238 1172.74 100.009 1172.48 100.061C1166.31 101.35 1160.2 102.99 1153.79 102.592C1151.95 102.481 1150.1 102.592 1148.26 102.592C1144.05 102.709 1139.84 102.172 1135.79 101C1134.92 100.729 1133.98 100.65 1133.1 100.411C1131.95 100.166 1130.83 99.8088 1129.75 99.344C1127.74 98.3409 1125.63 97.7517 1123.66 96.5893C1116.99 92.9609 1111.68 87.2605 1108.53 80.3478C1106.81 76.9192 1105.78 73.1866 1105.49 69.3609C1105.49 68.0552 1105.19 66.7495 1105.11 65.4438C1105.03 64.1381 1105.35 63.6923 1106.67 61.877Z" fill="#B51529"/>
<path d="M127.966 248.766C126.773 248.034 125.803 247.333 124.785 246.824C116.833 243.034 108.881 239.281 100.929 235.566C99.9382 235.183 99.0621 234.553 98.384 233.735C98.1403 233.289 98.0315 232.783 98.0711 232.276C98.1106 231.77 98.2967 231.287 98.6066 230.885C98.877 230.885 99.1792 230.725 99.37 230.885C104.777 233.591 110.174 236.309 115.561 239.037C118.741 240.629 121.922 242.317 125.103 243.91C125.62 244.067 126.154 244.163 126.694 244.196C127.172 241.612 126.981 238.947 126.137 236.458C125.388 235.487 124.395 234.734 123.258 234.276C115.052 230.433 106.84 226.596 98.6225 222.764C96.4913 221.761 94.3761 220.694 92.2608 219.579C91.9008 219.35 91.4948 219.202 91.0716 219.147C90.6483 219.092 90.2181 219.131 89.8115 219.261C89.6795 219.715 89.6257 220.189 89.6525 220.662C90.1459 222.846 90.465 225.067 90.6067 227.302C90.7817 229.133 91.1316 230.948 91.402 232.763C92.4357 239.801 94.0421 246.728 95.6484 253.655C96.38 256.839 97.3661 260.024 98.3203 263.208C99.0678 265.724 99.9108 268.192 100.77 270.692C103.199 277.911 105.997 285.001 109.151 291.934C113.63 301.884 118.779 311.519 124.562 320.77C125.262 321.885 126.057 322.936 126.741 324.066C126.916 324.353 126.741 324.799 126.853 325.261C126.423 325.261 126.01 325.515 125.708 325.42C122.733 324.369 119.712 323.414 116.833 322.235C110.207 319.355 103.731 316.139 97.4297 312.602C91.2387 309.069 85.2591 305.177 79.5214 300.946C72.9937 296.248 67.4678 290.293 63.2672 283.431C60.0842 277.989 57.2579 272.345 54.8061 266.536C52.7386 261.759 51.0209 256.982 49.2873 252.206C48.0786 248.878 47.2198 245.422 46.2496 242.015C45.1045 237.939 44.0018 233.868 42.9415 229.802C42.6075 228.528 42.4485 227.222 42.194 225.917C41.9396 224.611 41.6851 223.337 41.3988 222.063C41.1125 220.789 40.7626 219.515 40.4604 218.385C40.4923 218.21 40.5594 218.043 40.6579 217.895C40.7563 217.747 40.8838 217.621 41.0328 217.524C41.1817 217.427 41.3488 217.362 41.5239 217.332C41.6989 217.302 41.8783 217.308 42.0509 217.35C43.2119 217.525 44.357 217.844 45.518 218.051C47.3311 218.369 49.1283 218.783 50.9573 218.942C57.126 219.439 63.3265 219.385 69.4858 218.783C72.6179 218.398 75.7246 217.83 78.7898 217.079C82.1138 216.315 85.3901 215.36 88.8414 214.452C89.6912 214.659 90.5255 214.925 91.3383 215.248L119.028 228.56C120.618 229.356 122.368 230.152 124.054 230.869C124.481 230.966 124.921 230.998 125.358 230.964C125.504 230.327 125.568 229.675 125.549 229.022C124.372 221.57 124.769 214.022 123.958 206.554C123.789 205.894 123.799 205.201 123.987 204.547C124.174 203.892 124.532 203.299 125.024 202.828C129.222 200.456 133.882 198.64 138.002 195.886C138.002 194.293 138.145 192.972 138.161 191.666C138.426 178.354 138.701 165.048 138.988 151.747C138.988 147.798 139.242 143.785 139.417 139.9C139.539 139.087 139.72 138.283 139.958 137.496C146.908 133.26 153.906 129.12 160.904 124.98C161.271 124.812 161.655 124.684 162.049 124.598C162.256 124.98 162.574 125.283 162.606 125.617C162.606 126.795 162.606 127.974 162.606 129.168C162.51 135.887 162.462 142.607 162.256 149.327C162.065 155.696 161.667 162.208 161.429 168.657C161.27 173.147 161.206 177.622 161.142 182.096C161.177 182.572 161.268 183.043 161.413 183.497C162.701 184.278 163.83 182.908 165.23 183.673C165.462 184.02 165.625 184.409 165.707 184.819C165.802 185.87 165.707 186.921 165.707 188.004C165.516 203.693 165.802 219.367 166.566 235.025C166.979 243.83 167.043 252.683 168.442 261.425C168.536 262.074 168.589 262.728 168.601 263.384C168.961 270.356 169.704 277.304 170.828 284.195C170.987 285.103 171.003 286.026 171.114 286.95C171.411 289.168 171.729 291.382 172.069 293.59C172.498 296.456 173.039 299.29 173.373 302.172C173.929 306.949 174.963 311.503 175.854 316.153C176.84 321.726 178.065 327.299 179.416 332.745C179.623 333.62 179.687 334.528 179.798 335.213C179.624 335.539 179.358 335.807 179.033 335.983C178.707 336.158 178.337 336.234 177.969 336.2C175.87 336.2 173.754 336.12 171.607 335.929C169.114 335.757 166.634 335.433 164.18 334.958C161.038 334.392 157.939 333.604 154.908 332.601C154.049 331.168 153.079 329.751 152.331 328.238C147.941 319.563 144.106 310.618 140.848 301.456C138.484 294.619 136.363 287.719 134.487 280.756C133.326 276.441 132.244 272.093 131.306 267.731C130.006 262.225 128.997 256.655 128.284 251.043C128.316 250.343 128.157 249.706 127.966 248.766Z" fill="#B51529"/>
<path d="M187.814 66.7656C187.687 71.3037 187.575 75.38 187.464 79.1378C187.973 80.3639 189.054 79.9499 189.611 80.4435C190.168 80.9371 190.025 81.9243 190.009 82.6886C189.881 89.9336 189.722 97.1786 189.579 104.424C189.42 112.99 189.261 121.557 189.15 130.108C188.864 149.873 188.593 169.639 188.339 189.405C188.545 190.867 188.375 192.358 187.846 193.736C187.512 193.736 187.05 194.071 186.78 193.943C184.184 192.881 181.794 191.372 179.719 189.485C179.575 185.026 179.719 180.552 179.719 176.077C179.719 171.603 179.719 167.113 179.719 162.638V149.152C179.719 144.677 179.719 140.203 179.719 136.174C179.094 134.851 178.093 133.743 176.84 132.99C174.82 131.397 172.737 129.805 170.701 128.053C170.135 127.503 169.604 126.918 169.11 126.302C169.906 115.347 170.701 104.455 171.496 93.5641C172.196 92.2787 173.273 91.2394 174.581 90.5865C175.422 90.0637 176.112 89.3305 176.583 88.4593C177.055 87.5882 177.291 86.609 177.269 85.6185C177.381 82.4339 177.54 79.2493 177.683 76.1443C177.72 73.6963 178.061 71.2624 178.701 68.8993C179.204 68.3878 179.735 67.9041 180.291 67.4503C182.518 65.858 184.744 64.2657 187.003 62.6733C187.302 62.4082 187.671 62.2354 188.067 62.1761C188.462 62.1168 188.866 62.1733 189.229 62.339C191.52 65.0777 200.696 78.7238 202.573 82.2587C202.668 87.6726 202.78 93.4049 202.891 99.2646C204.641 101.175 206.279 103.07 208.044 104.838C208.659 105.399 209.147 106.086 209.473 106.853C209.8 107.619 209.958 108.447 209.937 109.28C209.937 110.076 209.937 110.872 209.937 111.653C210.159 129.571 210.377 147.49 210.589 165.409C210.589 166.699 210.7 168.004 210.748 169.071C210.961 169.384 211.287 169.603 211.656 169.683C212.026 169.763 212.412 169.698 212.736 169.501C215.758 167.909 218.748 166.317 221.563 164.724C222.815 164.893 223.954 165.537 224.744 166.524C227.781 169.246 230.787 172.001 233.793 174.74L245.992 185.886C246.58 186.412 247.185 186.905 247.725 187.383C247.725 188.497 247.948 189.421 247.916 190.313C247.709 195.981 247.471 201.634 247.248 207.303C247.169 209.134 247.073 210.981 247.057 212.828C247.132 213.375 247.276 213.91 247.487 214.42C250.668 214.15 253.371 212.653 256.218 211.777C259.065 210.901 261.594 209.627 264.361 208.847C267.129 208.067 269.848 206.284 272.647 205.885C273.649 206.188 273.936 206.761 273.904 207.478C273.793 209.325 273.665 211.156 273.538 213.003C273.443 214.309 273.331 215.63 273.236 216.936C272.806 222.191 272.616 227.477 271.884 232.684C270.914 239.722 270.135 246.792 268.703 253.782C267.812 258.432 266.938 263.081 265.904 267.699C264.95 271.934 263.948 276.17 262.85 280.358C261.801 284.291 260.687 288.208 259.431 292.093C257.22 298.956 254.978 305.835 252.083 312.475C250.413 316.328 248.902 320.229 247.169 324.082C246.167 326.359 245.053 328.589 243.988 330.834C243.659 331.393 243.287 331.926 242.875 332.426C242.522 332.647 242.149 332.833 241.761 332.983C238.31 333.764 234.891 334.735 231.376 335.197C225.247 336.045 219.078 336.577 212.895 336.789C211.718 336.789 210.541 336.789 209.348 336.789C208.959 336.744 208.584 336.613 208.251 336.407C208.044 336.295 207.917 336.025 207.646 335.69C207.533 333.769 207.71 331.842 208.171 329.974C208.474 328.382 208.728 326.869 208.919 325.309C209.587 319.815 210.207 314.322 210.859 308.828C210.97 307.777 211.13 306.726 211.225 305.644C211.575 301.567 211.925 297.507 212.227 293.431C212.529 289.354 212.752 285.278 213.07 281.218C214.088 268.336 214.12 255.422 214.549 242.509C214.692 238.177 214.549 233.815 214.628 229.468C214.584 228.405 214.621 227.34 214.74 226.283C214.973 225.544 215.299 224.838 215.71 224.181C224.887 221.57 234 219.07 242.747 216.076C243.149 215.581 243.447 215.01 243.625 214.398C243.802 213.785 243.855 213.143 243.781 212.509C243.781 207.494 243.956 202.494 244.036 197.494C244.036 195.121 244.036 192.717 244.036 190.106C243.543 189.458 243.012 188.841 242.445 188.259C236.72 183.036 230.973 177.824 225.205 172.622C224.667 172.231 224.098 171.885 223.503 171.587C223.217 172.049 222.883 172.351 222.851 172.686C222.756 173.992 222.724 175.313 222.708 176.619L222.374 206.268C222.383 207.331 222.335 208.394 222.231 209.452C222.099 209.969 221.89 210.463 221.61 210.917C221.067 210.828 220.534 210.684 220.02 210.487C216.155 208.513 212.306 206.538 208.474 204.516C208.033 204.218 207.637 203.859 207.297 203.449C206.982 200.302 206.881 197.136 206.994 193.975C206.994 190.79 206.994 187.606 206.994 184.421C206.994 181.237 206.994 178.052 206.994 174.867V165.313L206.756 156.046C206.756 152.862 206.756 149.677 206.756 146.492C206.756 143.308 206.756 140.123 206.756 136.939C206.756 133.754 206.756 130.569 206.756 127.385C206.756 124.2 206.756 121.015 206.756 117.831C206.756 114.646 206.756 111.462 206.756 108.643C205.855 106.903 204.579 105.385 203.018 104.201C202.272 103.556 201.684 102.748 201.298 101.84C200.912 100.932 200.739 99.9475 200.792 98.962C200.792 95.4112 200.712 91.8444 200.792 88.2936C200.899 85.7882 200.159 83.3199 198.692 81.2874C195.702 76.7971 192.871 72.2272 189.945 67.6891C189.385 67.1108 188.618 66.7787 187.814 66.7656V66.7656Z" fill="#B51529"/>
<path d="M356.256 183.593C352.423 178.991 348.463 174.421 344.71 169.708C340.956 164.995 337.505 160.329 333.99 155.568C330.475 150.807 326.945 145.76 323.493 140.935C322.65 140.935 322.396 141.445 322.475 141.986C323.334 147.336 323.652 152.718 324.241 158.084C324.654 162.017 325.068 165.934 325.179 169.899C325.402 178.72 325.402 187.542 325.036 196.379C325.059 196.772 325.059 197.165 325.036 197.557C324.384 203.449 323.764 209.341 323.016 215.216C322.65 218.082 322.062 220.917 321.617 223.783C321.533 224.486 321.49 225.193 321.489 225.901C321.663 226.3 321.935 226.648 322.28 226.912C322.625 227.177 323.032 227.349 323.462 227.413C326.133 228.098 328.821 228.735 331.414 229.435C332.288 229.674 333.227 229.881 333.672 230.869C333.712 231.25 333.712 231.634 333.672 232.015C333.227 233.798 332.75 235.566 332.257 237.333C330.984 241.903 329.728 246.457 328.424 251.011C326.356 258.209 323.811 265.342 321.171 272.269C319.931 275.581 318.515 278.845 317.036 282.061C313.463 290.103 309.206 297.822 304.313 305.134C302.531 307.729 300.543 310.181 298.667 312.729C298.07 313.604 297.158 314.215 296.122 314.433C295.804 314.433 295.422 314.258 294.866 314.099C295.311 313.286 295.629 312.586 296.058 311.949C303.101 301.638 309.272 290.757 314.507 279.418C317.477 273.119 320.053 266.642 322.221 260.024C323.811 255.247 325.306 250.47 326.547 245.693C327.231 243.018 327.74 240.311 328.471 237.731C329.011 236.428 329.095 234.98 328.71 233.623C327.451 232.81 326.038 232.268 324.559 232.031C318.262 230.15 312.142 227.72 306.269 224.77C301.307 222.382 296.472 219.707 291.716 216.809C290.199 215.948 288.753 214.969 287.391 213.879C287.251 212.994 287.177 212.1 287.168 211.204C287.391 206.347 287.709 201.475 287.931 196.618C288.074 193.433 288.186 190.249 288.202 187.064C288.202 181.539 288.202 175.998 288.09 170.472C287.884 163.753 287.47 157.049 287.088 150.346C286.977 148.642 286.627 146.954 286.389 145.25C286.277 144.343 286.182 143.435 286.118 142.75C286.255 142.264 286.514 141.822 286.87 141.465C287.227 141.108 287.669 140.849 288.154 140.712C291.017 139.773 293.911 138.913 296.79 138.005C302.229 136.301 307.923 135.824 313.41 134.725C316.096 134.286 318.825 134.179 321.537 134.407C322.985 135.416 324.2 136.724 325.1 138.244C328.36 142.527 331.557 146.874 334.817 151.158C342.372 161.11 350.197 170.854 358.419 180.249C358.944 180.838 359.421 181.475 360.01 182.176C360.089 183.02 360.2 183.927 360.232 184.851C360.333 193.147 359.94 201.442 359.055 209.691C358.944 210.869 358.658 212.032 358.451 213.194C358.244 214.356 358.022 215.264 357.926 216.379C357.449 220.031 356.78 223.656 355.922 227.238C355.111 231.107 354.061 234.913 352.98 238.703C352.089 241.887 351.183 245.072 350.085 248.129C347.227 256.171 343.941 264.053 340.241 271.743C336.805 278.845 332.972 285.724 328.853 292.443C327.644 294.434 326.865 295.055 323.986 296.822C323.859 296.631 323.589 296.392 323.621 296.233C323.727 295.725 323.909 295.237 324.161 294.784C327.771 289.145 331.043 283.296 333.958 277.268C335.835 273.511 337.521 269.657 339.27 265.836C341.513 260.931 343.421 255.9 345.203 250.82C346.236 247.843 347.223 244.849 348.097 241.824C349.401 237.27 350.61 232.7 351.692 228.098C353.059 222.318 353.696 216.426 354.873 210.583C354.965 210.194 355.034 209.801 355.079 209.404C355.461 200.949 356.638 192.574 356.256 183.593Z" fill="#B51529"/>
<path d="M281.347 224.038L284.003 225.741C284.114 226.511 284.161 227.289 284.146 228.066C283.908 230.678 283.637 233.305 283.287 235.9C282.778 239.547 282.269 243.209 281.617 246.824C280.599 252.381 279.629 257.97 278.309 263.447C276.381 271.632 274.013 279.706 271.216 287.634C269.625 292.093 268.035 296.535 266.19 300.882C261.95 311.228 256.97 321.254 251.288 330.881L249.92 331.025C249.729 330.627 249.506 330.388 249.538 330.181C249.591 329.665 249.737 329.164 249.968 328.7C254.347 320.627 258.265 312.313 261.705 303.796C264.027 298.223 266.047 292.539 268.067 286.838C269.228 283.494 270.055 280.023 271.009 276.616C272.122 272.699 273.252 268.781 274.301 264.848C274.731 263.256 275.017 261.521 275.319 259.833C275.955 256.346 276.989 252.938 277.355 249.371C277.625 246.776 278.293 244.196 278.659 241.601C279.311 236.903 279.852 232.206 280.472 227.509C280.521 226.304 280.819 225.122 281.347 224.038Z" fill="#B51529"/>
<path d="M173.739 207.334L174.884 206.634L177.365 208.417C177.365 209.404 177.556 210.312 177.604 211.22C177.969 218.465 178.303 225.694 178.653 232.923C178.653 233.321 178.653 233.719 178.653 234.117C179.114 243.448 179.56 252.779 180.069 262.126C180.212 264.753 180.53 267.364 180.753 269.992C180.943 272.094 181.118 274.195 181.262 276.361C181.834 285.15 182.566 293.876 183.377 302.73C183.965 309.099 184.601 315.564 185.142 321.996C185.301 323.828 185.619 325.643 185.778 327.474C185.985 330.101 186.112 332.729 186.24 335.356C186.24 335.579 186.017 335.802 185.906 336.041L184.983 335.897C184.235 334.251 183.834 332.467 183.806 330.659C183.754 327.5 183.365 324.356 182.645 321.28C182.636 321.147 182.636 321.014 182.645 320.882C182.2 316.105 181.739 311.455 181.293 306.742C181.182 305.564 181.293 304.354 181.023 303.207C180.357 298.764 179.922 294.289 179.719 289.8C179.242 283.622 178.542 277.476 177.922 271.313C177.922 271.059 177.922 270.804 177.922 270.533C177.715 262.763 176.761 255.04 176.331 247.285C175.822 238.607 175.456 229.929 174.963 221.251C174.804 218.226 174.47 215.216 174.216 212.191C173.946 210.615 173.85 209.038 173.739 207.334Z" fill="#B51529"/>
<path d="M185.571 212.541C185.882 212.432 186.213 212.389 186.541 212.414C187.246 212.596 187.881 212.984 188.365 213.529C188.85 214.073 189.161 214.749 189.261 215.471C189.398 216.527 189.462 217.591 189.452 218.656C190.136 233.4 189.977 248.177 190.343 262.922C190.517 270.167 190.883 277.412 191.154 284.657C191.297 288.606 191.392 292.618 191.567 296.503C191.774 301.28 192.044 305.978 192.267 310.723C192.362 312.697 192.458 314.672 192.521 316.646C192.728 323.015 192.521 329.289 193.507 335.34C193.078 336.295 192.585 336.534 191.917 336.056C191.806 335.818 191.599 335.595 191.599 335.356C191.138 326.152 190.009 316.981 190.009 307.745C190.009 303.796 189.468 299.863 189.166 295.914C189.166 295.007 188.975 294.083 188.943 293.16C188.529 283.606 188.1 274.211 187.75 264.721C187.527 259.068 187.257 253.4 186.669 247.763C186.669 247.237 186.573 246.712 186.557 246.171C186.398 235.757 185.842 225.375 185.301 214.977C185.091 214.159 185.187 213.293 185.571 212.541V212.541Z" fill="#B51529"/>
<path d="M194.987 218.433L196.116 217.621L199.154 219.213C199.392 219.974 199.578 220.751 199.71 221.538C199.758 222.455 199.758 223.375 199.71 224.292C199.604 249.175 199.493 274.052 199.376 298.924C199.376 310.516 199.292 322.097 199.122 333.668C199.347 334.768 199.13 335.912 198.518 336.853C198.231 336.63 197.738 336.439 197.706 336.184C197.555 334.884 197.476 333.576 197.468 332.267C197.468 321.121 197.468 309.974 197.277 298.701C196.991 280.007 196.63 261.324 196.196 242.652C196.084 237.652 195.639 232.668 195.369 227.668C195.225 224.515 195.13 221.554 194.987 218.433Z" fill="#B51529"/>
<path d="M291.749 229.866C292.275 229.87 292.785 230.049 293.2 230.375C293.614 230.7 293.909 231.154 294.039 231.665C294.108 231.914 294.145 232.171 294.15 232.429C293.959 234.117 293.752 235.821 293.562 237.509C293.515 238.299 293.419 239.086 293.275 239.865C291.939 245.231 291.685 250.804 289.983 256.091C289.291 260.236 288.292 264.324 286.993 268.32C285.673 273.256 283.812 278.049 282.222 282.874C279.443 290.66 276.204 298.274 272.52 305.675C269.546 311.806 266.159 317.745 262.675 323.589C261.864 324.942 261.085 326.28 260.147 327.586C259.843 327.959 259.496 328.296 259.113 328.589C258.079 328.461 257.936 327.84 258.159 327.156C258.383 326.545 258.676 325.963 259.033 325.42C262.787 318.955 266.461 312.459 269.737 305.739C273.07 299.05 276.032 292.182 278.612 285.166C280.202 280.708 281.888 276.281 283.081 271.727C284.398 267.593 285.408 263.368 286.103 259.084C287.836 253.4 288.218 247.461 289.395 241.665C290.063 238.337 290.19 234.881 290.874 231.522C290.875 231.195 290.956 230.874 291.108 230.586C291.26 230.298 291.48 230.051 291.749 229.866V229.866Z" fill="#B51529"/>
<path d="M204.307 222.923C205.993 222.493 206.772 223.56 207.71 224.706C207.827 225.433 207.891 226.168 207.901 226.904C207.774 233.082 207.774 239.276 207.44 245.438C206.788 257.142 206.676 268.845 206.438 280.565C206.353 284.248 206.152 287.926 205.834 291.599C205.325 297.364 205.325 303.16 205.229 308.94C205.229 313.159 205.229 317.363 204.991 321.583C204.8 326.168 204.466 330.77 204.179 335.356C204.19 335.704 204.114 336.049 203.959 336.36C203.803 336.671 203.573 336.939 203.289 337.139C203.034 336.948 202.621 336.789 202.51 336.502C202.313 335.996 202.226 335.453 202.255 334.91C202.404 330.664 202.557 326.46 202.716 322.299C202.939 317.044 203.178 311.79 203.384 306.535C203.511 303.51 203.671 300.484 203.702 297.459C203.925 278.638 204.126 259.822 204.307 241.012C204.354 235.12 204.307 229.197 204.307 222.923Z" fill="#B51529"/>
<path d="M267.669 326.646L266.079 326.009C266.079 325.547 265.984 325.229 266.079 325.054C267.829 322.124 269.61 319.226 271.391 316.312C275.017 310.373 278.325 304.274 281.427 298.032C284.226 292.395 286.691 286.599 288.997 280.74C290.095 277.921 291.065 275.055 291.987 272.189C293.196 268.447 294.436 264.705 295.407 260.884C296.552 256.298 297.426 251.648 298.397 247.015C298.556 246.25 298.524 245.422 298.746 244.69C299.442 242.147 299.863 239.536 300.003 236.904C300.121 236.143 300.297 235.393 300.528 234.658C302.118 233.799 302.691 235.088 303.534 236.06C303.438 236.856 303.391 237.763 303.247 238.655C297.944 270.233 285.801 300.267 267.669 326.646Z" fill="#B51529"/>
<path d="M273.888 324.703L272.95 323.207C274.54 320.85 276.131 318.621 277.721 316.36C283.206 308.346 287.995 299.875 292.035 291.042C293.625 287.459 295.216 283.861 296.711 280.214C297.983 277.03 299.096 273.845 300.242 270.661C301.673 266.712 302.898 262.699 303.995 258.639C305.41 253.851 306.525 248.98 307.335 244.053C307.673 242.143 308.146 240.259 308.75 238.416C310.341 238.05 311.184 238.416 311.152 239.467C311.129 241.044 310.97 242.616 310.675 244.165C309.386 250.327 307.891 256.473 305.999 262.476C299.554 283.458 289.827 303.284 277.18 321.216C276.341 322.598 275.219 323.787 273.888 324.703V324.703Z" fill="#B51529"/>
<path d="M321.585 242.031C321.8 241.995 322.02 242.004 322.232 242.056C322.443 242.109 322.642 242.205 322.815 242.338C322.988 242.471 323.132 242.638 323.237 242.829C323.343 243.02 323.409 243.231 323.43 243.448C318.159 266.506 308.809 288.433 295.82 308.191C289.903 317.14 289.76 317.044 287.868 318.35C287.725 318 287.422 317.618 287.502 317.363C287.721 316.751 288.032 316.177 288.424 315.659C294.863 307.04 300.42 297.796 305.013 288.064C308.388 281.103 311.347 273.946 313.871 266.632C316.304 259.844 318.385 252.935 320.106 245.932C320.349 245.045 320.657 244.178 321.028 243.336C321.192 242.892 321.378 242.456 321.585 242.031Z" fill="#B51529"/>
<path d="M315.207 240.438L316.957 240.661C317.114 241.183 317.236 241.715 317.323 242.254C317.332 242.652 317.279 243.05 317.164 243.432C315.684 249.435 314.126 255.422 312.249 261.298C308.879 271.932 304.672 282.283 299.669 292.252C295.087 301.565 289.69 310.453 283.542 318.812C283.16 319.337 282.778 319.879 282.365 320.404C282.105 320.681 281.829 320.941 281.538 321.184C280.727 321.184 280.568 320.786 280.822 320.229C281.109 319.634 281.461 319.074 281.872 318.557C288.332 309.616 293.913 300.071 298.54 290.055C300.862 285.055 302.945 279.975 304.901 274.848C307.064 269.339 308.83 263.702 310.563 258.065C311.804 254.053 312.583 249.913 313.601 245.836C314.094 244.18 314.603 242.54 315.207 240.438Z" fill="#B51529"/>
<path d="M119.282 250.995C120.157 252.588 120.093 253.448 119.282 254.18C118.885 254.18 118.582 254.276 118.376 254.18C113.127 251.516 107.889 248.862 102.662 246.218C101.56 245.763 100.587 245.041 99.8312 244.117C99.5799 243.681 99.4795 243.175 99.5457 242.677C99.6119 242.179 99.8409 241.716 100.197 241.362C100.502 241.311 100.814 241.311 101.119 241.362C102.996 242.285 104.873 243.193 106.718 244.18C110.837 246.425 115.068 248.75 119.282 250.995Z" fill="#B51529"/>
<path d="M243.877 95.5385C243.018 95.5385 242.668 95.1086 242.572 94.5831C242.434 93.8103 242.36 93.0274 242.35 92.2424C242.35 90.8093 242.35 89.3603 242.35 87.9273C242.272 87.1848 242.133 86.4499 241.936 85.7299C240.346 84.7426 238.755 85.3159 237.165 84.9656C236.79 84.8723 236.463 84.646 236.243 84.3286C236.098 83.9696 236.028 83.5851 236.036 83.1981C237.769 82.2268 239.741 83.0866 241.634 82.2427C241.893 81.7337 242.101 81.2004 242.254 80.6504C242.445 79.6154 242.461 78.5645 242.604 77.4658C242.604 76.9722 243.209 76.797 244.322 76.9563C244.513 78.5486 244.72 80.1409 244.91 81.7332C245.722 82.7204 246.66 82.6089 247.566 82.7045C248.473 82.8 249.936 82.3701 251.034 83.4529L250.413 84.8382L245.244 85.4273C245 86.0332 244.818 86.6629 244.704 87.3063C244.704 89.2648 244.704 91.2393 244.704 93.1978C244.688 93.7351 244.613 94.2691 244.481 94.7901C244.338 94.9493 244.131 95.1404 243.877 95.5385Z" fill="#B51529"/>
<path d="M331.827 162.415C332.157 162.394 332.487 162.463 332.781 162.614C333.075 162.766 333.322 162.994 333.497 163.275L344.264 176.38C346.109 178.609 347.986 180.806 349.831 183.036C350.397 183.747 350.928 184.485 351.421 185.249C351.675 185.662 351.898 186.093 352.089 186.539C351.914 187.335 351.453 187.43 350.642 187.255C348.702 185.042 346.634 182.669 344.551 180.313L333.418 167.574C332.867 167.008 332.367 166.396 331.923 165.743C331.549 165.274 331.337 164.695 331.32 164.095C331.303 163.495 331.481 162.905 331.827 162.415V162.415Z" fill="#B51529"/>
<path d="M115.878 259.546C116.419 260.74 116.769 261.712 115.449 262.603C110.837 260.247 106.272 257.715 101.946 254.944C101.549 253.495 101.215 252.269 102.248 251.139C106.972 253.637 111.525 256.446 115.878 259.546Z" fill="#B51529"/>
<path d="M348.781 194.071C348.893 194.692 349.163 195.36 348.225 195.743C347.882 195.624 347.56 195.452 347.271 195.233C342.626 190.456 338.03 185.584 333.386 180.759C332.612 180.038 332.131 179.058 332.034 178.004C332.034 177.463 332.145 176.953 332.813 176.842C338.439 182.296 343.769 188.047 348.781 194.071V194.071Z" fill="#B51529"/>
<path d="M340.972 201.65L332.543 195.042L332.018 191.953L333.179 191.364C335.612 193.768 337.95 196.14 340.4 198.513C340.839 198.973 341.184 199.514 341.418 200.105C341.513 200.392 341.243 200.806 340.972 201.65Z" fill="#B51529"/>
<path d="M331.955 202.812C333.354 203.545 334.213 204.516 333.911 206.092C333.386 206.698 332.861 206.65 332.464 206.268C331.271 205.089 331.191 204.452 331.955 202.812Z" fill="#B51529"/>
<path d="M206.756 17.5154C244.19 17.5127 280.785 28.6243 311.911 49.4449C343.038 70.2656 367.298 99.8601 381.624 134.486C395.95 169.111 399.698 207.212 392.394 243.97C385.09 280.729 367.062 314.493 340.591 340.993C305.096 376.53 256.954 396.494 206.756 396.494C156.558 396.494 108.417 376.53 72.9214 340.993C37.4262 305.456 17.4852 257.257 17.4852 207C17.4852 156.743 37.4262 108.544 72.9213 73.0073C90.4579 55.3593 111.316 41.3681 134.288 31.843C157.261 22.3179 181.892 17.4482 206.756 17.5154V17.5154ZM206.756 0C165.864 0 125.889 12.1403 91.8886 34.8858C57.8878 57.6312 31.3873 89.9602 15.7385 127.785C0.0895825 165.609 -4.00487 207.23 3.97285 247.384C11.9506 287.538 31.6422 324.422 60.5575 353.371C89.4729 382.321 126.313 402.035 166.42 410.023C206.527 418.01 248.098 413.91 285.878 398.243C323.658 382.576 355.949 356.044 378.667 322.003C401.386 287.962 413.512 247.941 413.512 207C413.512 152.1 391.729 99.4489 352.955 60.6289C314.18 21.8089 261.591 0 206.756 0V0Z" fill="#2E1E83"/>
</g>
<defs>
<clipPath id="clip0">
<rect width="1920" height="414" fill="white"/>
</clipPath>
</defs>
</svg>
